<?xml version="1.0" encoding="UTF-8"?> <svg xmlns="http://www.w3.org/2000/svg" width="290" height="44" fill="none" viewBox="0 0 290 44"><path fill="#121216" d="M40.301 22.225H16.2a5.527 5.527 0 0 1-.34-1.695c.015-.553.13-1.099.34-1.61h24.102a26.6 26.6 0 0 1 .34-2.713H14.757a6.777 6.777 0 0 0-1.698 4.408 6.345 6.345 0 0 0 1.698 4.408H40.64c-.17-1.017-.255-1.95-.34-2.798Z"></path><path fill="#121216" d="M44.46 34.26H8.562a21.938 21.938 0 0 1 0-27.464h35.813c.66-.94 1.368-1.846 2.122-2.712H7.289A24.65 24.65 0 0 0 1 20.529a24.65 24.65 0 0 0 6.289 16.444h39.208c-.73-.865-1.41-1.77-2.037-2.712Z"></path><path fill="#121216" d="M41.49 28.243H12.381a12.959 12.959 0 0 1 0-15.427h29.11c.316-.924.684-1.83 1.102-2.713H11.108a15.578 15.578 0 0 0 0 20.853h31.485a25.934 25.934 0 0 1-1.103-2.713ZM56.85 16.799a5.083 5.083 0 0 1-1.272-3.815v-8.9h2.291V12.9a3.226 3.226 0 0 0 .764 2.373 4.086 4.086 0 0 0 4.752 0 3.229 3.229 0 0 0 .764-2.373V4.084h2.292v8.985a5.147 5.147 0 0 1-1.273 3.815c-.849.847-2.207 1.186-4.074 1.186s-3.395-.424-4.243-1.271ZM76.794 8.748a4.086 4.086 0 0 1 1.018 2.967v6.018h-2.206v-5.595a3.117 3.117 0 0 0-.51-1.95 2.038 2.038 0 0 0-1.612-.592 2.439 2.439 0 0 0-1.782.678 2.744 2.744 0 0 0-.594 1.95v5.509H68.9V7.985h2.207v1.102a3.48 3.48 0 0 1 3.055-1.356 3.661 3.661 0 0 1 2.63 1.017ZM82.056 7.984H79.85v9.748h2.206V7.984ZM83.414 7.984h2.376l2.631 7.29 2.631-7.29h2.376l-3.734 9.748h-2.461l-3.819-9.748ZM101.49 15.019c.095-.215.153-.444.17-.678h2.206a3.711 3.711 0 0 1-1.188 2.458 3.394 3.394 0 0 1-1.612.848 7.28 7.28 0 0 1-2.037.339 6.099 6.099 0 0 1-2.885-.678 4.41 4.41 0 0 1-1.783-1.95 5.707 5.707 0 0 1-.509-2.543c-.018-.454.01-.908.085-1.356.074-.406.188-.803.34-1.187a4.24 4.24 0 0 1 1.697-1.95 6.108 6.108 0 0 1 5.601 0 3.976 3.976 0 0 1 1.697 1.865c.192.465.334.947.425 1.441.074.59.103 1.186.084 1.78h-7.807c0 .473.117.939.34 1.357.189.433.517.79.933 1.017.5.247 1.055.363 1.612.339l1.188-.17.849-.424c.34-.084.424-.338.594-.508Zm-5.092-4.154c-.173.28-.262.604-.254.933h5.516a2.34 2.34 0 0 0-.255-1.017 2.755 2.755 0 0 0-.933-1.026 3.153 3.153 0 0 0-4.074 1.102v.008ZM111.504 7.9v1.949h-1.018a2.445 2.445 0 0 0-1.952.763 3.391 3.391 0 0 0-.679 2.204v5.001h-2.207V7.984h2.207v1.102a2.972 2.972 0 0 1 2.631-1.271l1.018.084ZM114.135 17.563a2.976 2.976 0 0 1-1.443-1.441 3.21 3.21 0 0 1-.339-1.611h2.121c.01.318.067.632.17.932.255.679.934.933 1.867.933.934 0 1.528-.255 1.782-.763.066-.161.095-.335.085-.509a1.136 1.136 0 0 0-.085-.508l-.424-.509-.764-.339-1.273-.254a7.831 7.831 0 0 1-1.867-.678 2.46 2.46 0 0 1-1.103-1.187 2.335 2.335 0 0 1-.17-1.102c-.004-.41.082-.815.255-1.187a3.07 3.07 0 0 1 1.273-1.28 4.537 4.537 0 0 1 2.291-.424c.784 0 1.56.144 2.292.424a2.792 2.792 0 0 1 1.358 1.272c.181.458.268.948.254 1.44h-2.122a3.226 3.226 0 0 0-.169-.847 1.346 1.346 0 0 0-.594-.593 1.838 1.838 0 0 0-1.019-.17c-.848 0-1.358.255-1.527.678a.624.624 0 0 0-.085.424.624.624 0 0 0 .085.424.756.756 0 0 0 .509.509l.764.339 1.188.254a7.877 7.877 0 0 1 2.037.763c.509.263.924.677 1.188 1.187.144.348.203.726.169 1.101.005.438-.081.87-.254 1.272a2.816 2.816 0 0 1-1.443 1.356 5.598 5.598 0 0 1-2.461.509 7.434 7.434 0 0 1-2.546-.416ZM124.744 7.984h-2.207v9.748h2.207V7.984ZM136.37 4.084v13.647h-2.122v-1.195a3.291 3.291 0 0 1-1.357 1.017 4.405 4.405 0 0 1-1.867.34 4.667 4.667 0 0 1-2.462-.679 3.898 3.898 0 0 1-1.527-1.78 7.401 7.401 0 0 1-.425-1.271 7.59 7.59 0 0 1-.169-1.441 6.78 6.78 0 0 1 .509-2.713 3.9 3.9 0 0 1 1.528-1.78 4.661 4.661 0 0 1 2.461-.678 4.564 4.564 0 0 1 1.867.339c.52.238.983.585 1.358 1.017V4.084h2.206Zm-2.122 8.477a3.38 3.38 0 0 0-.679-2.204 2.544 2.544 0 0 0-1.951-.763 2.404 2.404 0 0 0-1.443.339 2.131 2.131 0 0 0-.934 1.017 4.132 4.132 0 0 0-.339 1.865c-.033.64.083 1.278.339 1.865.192.431.52.788.934 1.017.442.238.94.355 1.443.339a2.552 2.552 0 0 0 1.951-.763 2.969 2.969 0 0 0 .679-2.204v-.508ZM147.402 11.969v5.764h-2.206V16.63a3.995 3.995 0 0 1-3.31 1.356 5.62 5.62 0 0 1-2.207-.424 2.342 2.342 0 0 1-1.273-1.271 3.303 3.303 0 0 1-.254-1.272 2.746 2.746 0 0 1 .254-1.271 2.714 2.714 0 0 1 1.698-1.526c.99-.297 2.021-.44 3.055-.424h2.037v-.847a1.21 1.21 0 0 0-.17-.509c-.255-.678-.934-.932-2.037-.932-.466-.018-.93.069-1.358.254a1.524 1.524 0 0 0-.763.678 2.017 2.017 0 0 0-.17.678h-2.207a3.642 3.642 0 0 1 .255-1.44c.594-1.272 1.952-1.95 4.158-1.95a5.726 5.726 0 0 1 2.631.508c.66.3 1.177.844 1.443 1.517.348.683.495 1.45.424 2.213Zm-2.206 1.526h-1.867l-1.783.17a1.178 1.178 0 0 0-.933.677 1.279 1.279 0 0 0-.085.593c-.019.202.01.406.085.594a1.16 1.16 0 0 0 .679.593 2.7 2.7 0 0 0 1.188.17 3.108 3.108 0 0 0 1.612-.34c.416-.225.745-.583.934-1.017.115-.471.172-.955.17-1.44ZM159.029 4.084v13.647h-2.121v-1.195a3.294 3.294 0 0 1-1.358 1.017 4.402 4.402 0 0 1-1.867.34 4.661 4.661 0 0 1-2.461-.679 3.9 3.9 0 0 1-1.528-1.78 7.485 7.485 0 0 1-.424-1.271 7.511 7.511 0 0 1-.17-1.441 6.78 6.78 0 0 1 .509-2.713 3.9 3.9 0 0 1 1.528-1.78 4.661 4.661 0 0 1 2.461-.678 4.564 4.564 0 0 1 1.867.339c.52.238.983.585 1.358 1.017V4.084h2.206Zm-2.206 8.477a3.391 3.391 0 0 0-.679-2.204 2.548 2.548 0 0 0-1.952-.763 2.404 2.404 0 0 0-1.443.339 2.13 2.13 0 0 0-.933 1.017 4.12 4.12 0 0 0-.34 1.865c-.032.64.084 1.278.34 1.865.192.431.519.788.933 1.017.443.238.94.355 1.443.339a2.547 2.547 0 0 0 1.952-.763 2.95 2.95 0 0 0 .562-1.033c.117-.379.157-.777.117-1.17v-.51ZM58.293 36.296a5.333 5.333 0 0 1-2.291-2.627 8.527 8.527 0 0 1-.68-3.815 10.73 10.73 0 0 1 .68-3.9 6.308 6.308 0 0 1 2.29-2.635 7.365 7.365 0 0 1 3.735-.933c.866.001 1.726.144 2.546.424.734.24 1.402.646 1.952 1.187a4.06 4.06 0 0 1 1.188 1.695c.271.708.443 1.45.51 2.204h-2.377a4.066 4.066 0 0 0-1.019-2.458 4.67 4.67 0 0 0-5.091-.34 3.832 3.832 0 0 0-1.443 1.611c-.192.435-.335.89-.425 1.357a10.37 10.37 0 0 0-.17 1.78c-.017.594.01 1.19.086 1.78.09.466.232.921.424 1.356a3.333 3.333 0 0 0 1.443 1.61c.698.395 1.488.6 2.291.594a4.935 4.935 0 0 0 1.612-.255 4.71 4.71 0 0 0 1.273-.678 3.136 3.136 0 0 0 1.019-2.458h2.376A6.32 6.32 0 0 1 67.798 34a4.112 4.112 0 0 1-1.188 1.695 5.372 5.372 0 0 1-2.037 1.187 7.9 7.9 0 0 1-2.546.424 8.342 8.342 0 0 1-3.734-1.009ZM72.042 36.381a3.816 3.816 0 0 1-1.698-1.95 5.47 5.47 0 0 1-.509-2.458 6.25 6.25 0 0 1 .51-2.543 4.24 4.24 0 0 1 1.697-1.95 6.108 6.108 0 0 1 5.6 0 3.816 3.816 0 0 1 1.698 1.95 6.604 6.604 0 0 1 0 5.086 4.239 4.239 0 0 1-1.697 1.95 5.75 5.75 0 0 1-2.8.678 5.096 5.096 0 0 1-2.801-.763Zm4.328-1.526c.392-.254.713-.604.933-1.017a5.183 5.183 0 0 0 .34-1.865 3.608 3.608 0 0 0-.34-1.865 2.128 2.128 0 0 0-.933-1.017 3.568 3.568 0 0 0-3.056 0c-.39.252-.712.6-.933 1.009a3.904 3.904 0 0 0-.34 1.865 4.14 4.14 0 0 0 .34 1.865c.19.433.518.79.933 1.017.469.251.997.368 1.528.339a2.029 2.029 0 0 0 1.528-.33ZM89.693 27.904a4.085 4.085 0 0 1 1.019 2.967v6.01h-2.207v-5.595a3.116 3.116 0 0 0-.509-1.95 2.037 2.037 0 0 0-1.612-.593 2.44 2.44 0 0 0-1.783.678 2.744 2.744 0 0 0-.594 1.95v5.51h-2.206v-9.74h2.206v1.102a3.48 3.48 0 0 1 3.055-1.356 3.4 3.4 0 0 1 2.631 1.017ZM94.277 36.295a3.322 3.322 0 0 1-.764-2.458V28.92h-1.528v-1.78h1.528v-3.984h2.206v3.984h2.801v1.78h-2.8v4.57c-.052.45.069.905.339 1.27a1.528 1.528 0 0 0 1.188.425l1.188-.17v1.865a7.268 7.268 0 0 1-1.867.17 3.144 3.144 0 0 1-2.291-.755ZM102.763 27.14h-2.206v9.749h2.206V27.14ZM113.117 27.904a4.09 4.09 0 0 1 1.019 2.967v6.01h-2.207v-5.595a3.115 3.115 0 0 0-.509-1.95 2.033 2.033 0 0 0-1.613-.593 2.438 2.438 0 0 0-1.782.678 2.743 2.743 0 0 0-.594 1.95v5.51h-2.206v-9.74h2.206v1.102a3.478 3.478 0 0 1 3.055-1.356 3.403 3.403 0 0 1 2.631 1.017ZM123.471 34.177a2.04 2.04 0 0 0 .169-.678h2.207a3.711 3.711 0 0 1-1.188 2.458 3.396 3.396 0 0 1-1.613.848 7.271 7.271 0 0 1-2.037.339 6.096 6.096 0 0 1-2.885-.678 4.408 4.408 0 0 1-1.782-1.95 5.698 5.698 0 0 1-.509-2.543c-.019-.454.01-.908.085-1.356.074-.406.187-.803.339-1.187a4.241 4.241 0 0 1 1.697-1.95 6.109 6.109 0 0 1 5.601 0 3.978 3.978 0 0 1 1.698 1.866c.191.464.333.947.424 1.44.075.59.103 1.186.085 1.78h-7.808c.001.473.118.94.34 1.357.189.433.518.791.933 1.017a3.316 3.316 0 0 0 1.613.34l1.188-.17c.306-.09.593-.233.849-.424.339-.085.424-.255.594-.509Zm-5.092-4.153a1.693 1.693 0 0 0-.255.924h5.516a2.352 2.352 0 0 0-.254-1.018 2.755 2.755 0 0 0-.934-1.017 2.81 2.81 0 0 0-1.527-.339 2.64 2.64 0 0 0-2.546 1.45ZM135.776 27.904a4.09 4.09 0 0 1 1.019 2.967v6.01h-2.207v-5.595a3.115 3.115 0 0 0-.509-1.95 2.033 2.033 0 0 0-1.612-.593 2.44 2.44 0 0 0-1.783.678 2.747 2.747 0 0 0-.594 1.95v5.51h-2.206v-9.74h2.206v1.102a3.485 3.485 0 0 1 3.055-1.356 3.403 3.403 0 0 1 2.631 1.017ZM140.359 36.295a3.312 3.312 0 0 1-.764-2.458V28.92h-1.528v-1.78h1.528v-3.984h2.206v3.984h2.801v1.78h-2.801v4.57a1.8 1.8 0 0 0 .34 1.27 1.523 1.523 0 0 0 1.188.425l1.188-.17v1.865a7.266 7.266 0 0 1-1.867.17 3.143 3.143 0 0 1-2.291-.755ZM155.126 31.126v5.68h-2.207v-1.103a3.986 3.986 0 0 1-3.309 1.356 5.615 5.615 0 0 1-2.207-.423 2.344 2.344 0 0 1-1.273-1.272 3.304 3.304 0 0 1-.255-1.271 2.734 2.734 0 0 1 .255-1.272 2.713 2.713 0 0 1 1.697-1.526c.991-.297 2.021-.44 3.056-.424h2.036v-.847a1.196 1.196 0 0 0-.169-.509c-.255-.678-.934-.932-2.037-.932-.466-.018-.93.07-1.358.254a1.527 1.527 0 0 0-.764.678 2.066 2.066 0 0 0-.17.678h-2.206a3.642 3.642 0 0 1 .254-1.44c.595-1.272 1.952-1.95 4.159-1.95a5.726 5.726 0 0 1 2.631.508 2.794 2.794 0 0 1 1.443 1.526c.338.713.485 1.502.424 2.289Zm-2.207 1.517h-1.867l-1.782.17a1.176 1.176 0 0 0-.933.678 2.156 2.156 0 0 0 0 1.187 1.16 1.16 0 0 0 .678.593c.379.145.785.203 1.189.17a3.108 3.108 0 0 0 1.612-.34c.416-.226.744-.584.934-1.017.115-.472.172-.956.169-1.44ZM156.907 23.156h2.207V36.88h-2.207V23.156ZM80.953 6.543a1.272 1.272 0 1 0 .001-2.545 1.272 1.272 0 0 0-.001 2.545ZM101.66 25.615a1.272 1.272 0 1 0 .002-2.544 1.272 1.272 0 0 0-.002 2.544ZM123.64 6.543a1.272 1.272 0 1 0 .001-2.545 1.272 1.272 0 0 0-.001 2.545ZM173.033 4h-1.443v33.652h1.443V4Z"></path><path fill="#000" d="M185.076 18V7.09h1.976v4.62h5.055V7.09h1.982V18h-1.982v-4.634h-5.055V18h-1.976Zm16.292-3.441v-4.74h1.928V18h-1.87v-1.454h-.085a2.46 2.46 0 0 1-.911 1.124c-.419.29-.936.436-1.55.436-.536 0-1.01-.118-1.422-.356a2.484 2.484 0 0 1-.959-1.05c-.231-.461-.346-1.019-.346-1.672v-5.21h1.928v4.911c0 .519.142.93.426 1.236.284.306.657.458 1.119.458.284 0 .559-.069.826-.207.266-.139.484-.345.655-.618.174-.277.261-.624.261-1.04ZM205.364 18V7.09h1.928v4.081h.08c.1-.199.24-.41.421-.634a2.23 2.23 0 0 1 .735-.58c.309-.164.703-.245 1.183-.245.632 0 1.202.161 1.71.484.511.32.916.794 1.214 1.423.302.625.453 1.392.453 2.3 0 .9-.148 1.663-.442 2.291-.295.629-.696 1.108-1.204 1.438a3.096 3.096 0 0 1-1.726.496c-.469 0-.858-.078-1.167-.235a2.377 2.377 0 0 1-.745-.564 3.641 3.641 0 0 1-.432-.634h-.112V18h-1.896Zm1.891-4.09c0 .528.075.992.224 1.39.152.397.371.708.655.931.288.22.636.33 1.044.33.426 0 .783-.113 1.071-.34a2.11 2.11 0 0 0 .65-.943c.149-.401.223-.857.223-1.369 0-.508-.073-.959-.218-1.353-.146-.394-.362-.703-.65-.927-.288-.223-.646-.335-1.076-.335-.412 0-.762.108-1.049.325-.288.216-.506.52-.656.91-.145.391-.218.851-.218 1.38ZM188.24 36.17c-.682 0-1.284-.172-1.806-.516-.522-.348-.93-.838-1.225-1.47-.295-.636-.442-1.387-.442-2.254 0-.859.147-1.605.442-2.237.295-.632.705-1.12 1.231-1.465.525-.344 1.132-.516 1.821-.516.533 0 .954.088 1.263.266.312.174.55.373.714.597.166.22.296.4.388.543h.107V25.09h1.257V36h-1.214v-1.257h-.15c-.092.149-.223.337-.394.564-.17.224-.413.425-.73.602-.316.175-.736.261-1.262.261Zm.171-1.129c.504 0 .93-.131 1.278-.394.348-.266.612-.634.794-1.103.181-.472.271-1.017.271-1.635 0-.61-.089-1.145-.266-1.603-.178-.462-.44-.82-.788-1.076-.348-.26-.778-.39-1.289-.39-.533 0-.977.138-1.332.411-.352.27-.616.637-.794 1.103-.174.461-.261.98-.261 1.555 0 .583.089 1.112.266 1.587.182.473.448.85.799 1.13.356.277.796.415 1.322.415Zm9.486 1.13c-.788 0-1.468-.175-2.04-.523a3.497 3.497 0 0 1-1.315-1.47c-.306-.632-.459-1.367-.459-2.205 0-.838.153-1.577.459-2.216.308-.643.738-1.143 1.289-1.502.554-.362 1.2-.543 1.939-.543.426 0 .846.07 1.262.213.415.142.794.373 1.135.692.34.316.612.735.815 1.257.202.522.303 1.165.303 1.929v.532h-6.307V31.25h5.029a2.69 2.69 0 0 0-.277-1.236 2.09 2.09 0 0 0-.778-.858c-.334-.21-.728-.314-1.182-.314-.501 0-.934.124-1.3.373a2.45 2.45 0 0 0-.836.959 2.808 2.808 0 0 0-.293 1.267v.725c0 .618.106 1.142.319 1.571.217.426.517.751.9.975.384.22.83.33 1.337.33.331 0 .629-.046.895-.138.27-.096.503-.238.698-.426.195-.192.346-.43.453-.714l1.214.34a2.692 2.692 0 0 1-.644 1.087c-.302.31-.675.55-1.119.725-.444.17-.943.255-1.497.255Zm11.011-11.08V36h-1.321V25.09h1.321Zm3.735 5.987V36h-1.257v-8.182h1.214v1.279h.107c.192-.416.483-.75.874-1.002.39-.255.894-.383 1.512-.383.554 0 1.039.113 1.454.34.416.224.739.565.97 1.023.231.455.346 1.03.346 1.726V36h-1.257v-5.114c0-.642-.167-1.143-.501-1.502-.333-.362-.792-.543-1.374-.543-.401 0-.76.087-1.076.26a1.869 1.869 0 0 0-.74.763c-.181.333-.272.738-.272 1.214Zm11.161-3.26v1.066h-4.411v-1.066h4.411ZM220.714 36v-9.311c0-.469.11-.86.331-1.172.22-.313.506-.547.857-.703a2.714 2.714 0 0 1 1.113-.235c.309 0 .562.025.757.075.195.05.341.096.437.139l-.363 1.086a5.962 5.962 0 0 0-.266-.08 1.615 1.615 0 0 0-.437-.048c-.415 0-.715.105-.9.315-.181.21-.272.516-.272.921V36h-1.257Zm7.839.17c-.739 0-1.387-.175-1.945-.527a3.578 3.578 0 0 1-1.299-1.475c-.309-.633-.464-1.371-.464-2.216 0-.853.155-1.597.464-2.232.312-.636.745-1.13 1.299-1.481.558-.352 1.206-.527 1.945-.527.738 0 1.385.175 1.938.527.558.352.991.845 1.3 1.48.313.636.469 1.38.469 2.233 0 .845-.156 1.583-.469 2.216a3.531 3.531 0 0 1-1.3 1.475c-.553.352-1.2.527-1.938.527Zm0-1.129c.561 0 1.022-.144 1.385-.431.362-.288.63-.666.804-1.135.174-.469.261-.976.261-1.523 0-.547-.087-1.057-.261-1.53a2.578 2.578 0 0 0-.804-1.144c-.363-.291-.824-.437-1.385-.437-.562 0-1.023.145-1.385.437a2.572 2.572 0 0 0-.805 1.145 4.388 4.388 0 0 0-.261 1.529c0 .547.087 1.054.261 1.523.174.469.442.847.805 1.135.362.287.823.431 1.385.431Zm5.626.959v-8.182h1.214v1.236h.086c.149-.405.419-.733.809-.985a2.384 2.384 0 0 1 1.321-.379c.093 0 .208.002.347.006a4.6 4.6 0 0 1 .314.016v1.278a3.703 3.703 0 0 0-.293-.048 2.886 2.886 0 0 0-.474-.037 2.23 2.23 0 0 0-1.066.25c-.309.163-.554.39-.735.682a1.842 1.842 0 0 0-.266.985V36h-1.257Zm5.581 0v-8.182h1.214v1.279h.107c.17-.437.446-.776.826-1.018.38-.245.836-.367 1.369-.367.539 0 .989.122 1.347.367.362.242.645.58.847 1.018h.085c.21-.423.524-.759.943-1.007.419-.252.922-.378 1.508-.378.731 0 1.33.229 1.795.687.465.454.698 1.163.698 2.125V36h-1.258v-5.476c0-.604-.165-1.035-.495-1.294a1.832 1.832 0 0 0-1.166-.39c-.576 0-1.021.175-1.337.523-.317.344-.475.781-.475 1.31V36h-1.278v-5.604c0-.465-.151-.84-.453-1.124-.302-.287-.69-.431-1.166-.431-.327 0-.632.087-.916.26a1.968 1.968 0 0 0-.682.725 2.133 2.133 0 0 0-.256 1.06V36h-1.257Zm15.445.192c-.519 0-.989-.098-1.412-.293a2.43 2.43 0 0 1-1.007-.858c-.248-.376-.372-.83-.372-1.363 0-.47.092-.85.277-1.14.184-.295.431-.526.74-.693.309-.167.65-.291 1.023-.373.376-.085.754-.152 1.134-.202.497-.064.9-.112 1.209-.144.313-.035.54-.094.682-.176.146-.081.219-.223.219-.426v-.043c0-.525-.144-.933-.432-1.225-.284-.29-.715-.436-1.294-.436-.6 0-1.071.131-1.412.394-.341.263-.58.543-.719.841l-1.193-.426c.213-.497.497-.884.852-1.161.359-.28.749-.476 1.172-.586.426-.114.845-.17 1.257-.17.263 0 .565.032.906.096.344.06.676.186.996.378.323.192.591.48.804.868.213.387.32.905.32 1.555V36h-1.257v-1.108h-.064a2.25 2.25 0 0 1-.426.57 2.466 2.466 0 0 1-.794.517c-.33.142-.733.213-1.209.213Zm.191-1.13c.498 0 .917-.097 1.258-.292a1.995 1.995 0 0 0 1.044-1.732v-1.15c-.054.064-.171.122-.352.176-.177.05-.383.094-.618.133a28.329 28.329 0 0 1-1.204.16 4.809 4.809 0 0 0-.916.207c-.28.093-.508.233-.682.421-.17.185-.255.437-.255.757 0 .436.161.767.484.99.327.22.741.33 1.241.33Zm9.177 1.108c-.767 0-1.427-.18-1.981-.543a3.54 3.54 0 0 1-1.279-1.497c-.298-.635-.447-1.361-.447-2.178 0-.831.152-1.565.458-2.2.309-.64.738-1.138 1.289-1.497.554-.362 1.2-.543 1.939-.543.575 0 1.094.106 1.555.32.462.212.84.51 1.135.894.294.384.477.831.548 1.343h-1.257c-.096-.373-.309-.704-.639-.991-.327-.291-.767-.437-1.321-.437-.49 0-.92.128-1.289.383-.366.253-.652.61-.858 1.071-.202.458-.303.996-.303 1.614 0 .632.099 1.183.298 1.651.202.47.487.833.852 1.092.37.26.803.39 1.3.39.327 0 .623-.058.89-.171.266-.114.491-.277.676-.49.185-.213.316-.47.394-.767h1.257a2.906 2.906 0 0 1-1.63 2.22c-.454.225-.983.336-1.587.336Zm5.055-.17v-8.182h1.257V36h-1.257Zm.639-9.546a.895.895 0 0 1-.634-.25.804.804 0 0 1-.261-.602c0-.234.087-.435.261-.602a.895.895 0 0 1 .634-.25c.245 0 .455.084.629.25a.798.798 0 0 1 .266.602.799.799 0 0 1-.266.602.876.876 0 0 1-.629.25Zm6.245 9.716c-.739 0-1.387-.175-1.945-.527a3.578 3.578 0 0 1-1.299-1.475c-.309-.633-.464-1.371-.464-2.216 0-.853.155-1.597.464-2.232.312-.636.745-1.13 1.299-1.481.558-.352 1.206-.527 1.945-.527.738 0 1.384.175 1.938.527.558.352.991.845 1.3 1.48.313.636.469 1.38.469 2.233 0 .845-.156 1.583-.469 2.216a3.531 3.531 0 0 1-1.3 1.475c-.554.352-1.2.527-1.938.527Zm0-1.129c.561 0 1.022-.144 1.384-.431.363-.288.631-.666.805-1.135.174-.469.261-.976.261-1.523 0-.547-.087-1.057-.261-1.53a2.572 2.572 0 0 0-.805-1.144c-.362-.291-.823-.437-1.384-.437-.562 0-1.023.145-1.385.437a2.572 2.572 0 0 0-.805 1.145 4.388 4.388 0 0 0-.261 1.529c0 .547.087 1.054.261 1.523.174.469.442.847.805 1.135.362.287.823.431 1.385.431Zm-.576-8.33 1.3-2.472h1.47l-1.662 2.471h-1.108Zm7.459 4.367V36h-1.257v-8.182h1.214v1.279h.107a2.34 2.34 0 0 1 .873-1.002c.391-.255.895-.383 1.513-.383.554 0 1.039.113 1.454.34.416.224.739.565.97 1.023.231.455.346 1.03.346 1.726V36h-1.257v-5.114c0-.642-.167-1.143-.501-1.502-.333-.362-.792-.543-1.374-.543-.401 0-.76.087-1.076.26a1.869 1.869 0 0 0-.74.763c-.181.333-.272.738-.272 1.214Z"></path></svg> 